<svg xmlns="http://www.w3.org/2000/svg" width="1264" height="292.656" viewBox="0 0 1264 292.656">
  <defs>
    <style>
      .cls-1 {
        fill: #07a;
        fill-rule: evenodd;
      }
    </style>
  </defs>
  <path id="Color_Fill_1" data-name="Color Fill 1" class="cls-1" d="M12,20c5.819,0.144,8.338,1.837,13,3,2.046,3.241,2.988,4.032,3,10-6.234,8.568-5.7,23.67-18,26a18.312,18.312,0,0,1-1-6C14.742,45.671,12.418,30.766,12,20Zm22,0c5.819,0.144,8.338,1.837,13,3,1.947,3.086,2.886,3.43,3,9-6.071,9.17-5.38,24.619-18,27a18.311,18.311,0,0,1-1-6C36.742,45.671,34.418,30.766,34,20Zm87,96a16.987,16.987,0,0,0,6-1v3c-4.268,2-7.368,4.2-13,5a35.383,35.383,0,0,1-3-3c-6.732-8.447,9.56-33.728,12-42h-2c-3.082,4.141-8.906,6.005-12,10-6.177,7.974-12.719,16.359-18,25-3.07,5.022-2.361,12.43-9,14-7.739-28.008,13.675-69.768,25-87,4.386-6.674,8-19.281,18-20,1.583,1.127,13,5.523,10,7-13.193,20.733-34.648,37.238-39,67h1c6.673-10.824,19.264-27.691,36-28,3.065,2.478,6.885,4.944,10,7C136.057,86.662,121.557,96.3,121,116ZM555,21h4c5.709,11.061,11.74,21.844,15,36,6.862,29.8-15.858,69.378-36,72-2.483-1.81-6.881-3.189-10-4-12.424-19.847,6.146-59.338,27-60,1.819,1.738,4.606,2.871,7,4V63q-2.5-8-5-16c-2.959-6.8-9.044-11.138-10-20ZM169,38c6.006,0.628,12.963,4.185,14,10-5.135,3.384-10.158,10.392-13,16l-3-1C165.549,55.493,165.182,46.769,169,38ZM68,47c5.5,0.27,9.1,2.133,13,4v2c-4.534,3.016-9.424,10.228-11,16,4.4-.252,8.323-0.743,10,2h1v1H79c-3.106,2-9.773.932-13,3-6.541,6.995-14.384,33.35-12,46h2c3.523,2.024,13.641-3.738,14-3h1v1H70c-3.5,5.426-8.774,8.128-18,8-3.392-3.123-7.359-4.01-10-8-5.788-7.219,5.988-37.151,9-44-2.9.06-5.468,0.049-7-1-0.877-1.295-.894-2.467-1-5H42V68H54V67C59.055,61.664,64.027,52.988,68,47Zm327,0c5.5,0.27,9.1,2.133,13,4v2c-4.534,3.016-9.424,10.228-11,16,4.4-.252,8.323-0.743,10,2h1v1h-2c-3.106,2-9.773.932-13,3-6.541,6.995-14.384,33.35-12,46h2c3.523,2.024,13.641-3.738,14-3h1v1h-1c-3.5,5.426-8.774,8.128-18,8-3.392-3.123-7.359-4.01-10-8-5.788-7.219,5.988-37.151,9-44-2.9.06-5.468,0.049-7-1-0.877-1.295-.894-2.467-1-5h-1V68h12V67C386.055,61.664,391.027,52.988,395,47ZM327,87c0.477-5.589,1.768-7.141,1-12h-6c-4.313,6.808-6.083,12.969-6,25h9v1c-0.8,1.021-.355.274-1,2a19.857,19.857,0,0,0-8,2c0.488,12.64-2.024,23.017-11,26-2.214,2.234-9.231,4.617-13,2-5.211-1.6-5.811-4.634-9-8,2.179-11.42,7.506-19.123,17-23,2.821-1.152,6.7-.563,9-2-1.223-1.784-.3-4.122-1-7-3.607-14.819-3.807-33.523,15-34,4.343,5.969,11.116,7.208,12,17-2.132,3-3.473,7.787-5,11h-3ZM191,63h3c2.168,3.049,9.065,8.242,7,12-3.063,12.032-13.761,18.969-16,32h1v-2c14.78-10,19.769-33.82,44-34,1.839,2.789,3.185,2.825,4,7-9.333,6.316-15.052,22.423-15,38,3.183,0.944,6.06.154,9,1q-0.5,1-1,2c-4.592,2.208-6.765,3.913-14,4-1.359-1.262-1.768-1.365-4-2-5.88-11.915.249-22.243,3-33h-1c-3.341,4.286-9.154,7.122-13,11l-23,29a2.834,2.834,0,0,1-1-1c-2.006-1.4-2.066-1.346-3-4-2.99-3.757-1.761-12.576,0-18A173.571,173.571,0,0,1,191,63Zm81,0,10,1c1.632,2.585,3,3.469,4,7-16.8-5.324-37.124,29.983-40,45h4c6.453-9.54,17.635-15.762,24-26,3.837-6.173,2.082-13.554,12-14,1.359,1.261,1.768,1.365,4,2v1c-4.816,6.433-5.677,14.965-9,23-8.251,19.955-16.274,48.325-33,60-9.638,6.727-30.836,7.07-35-5a2.834,2.834,0,0,0,1-1c4.506,2.475,11.923,6.553,18,2,15.474-4.3,27.717-28.675,30-46h-1c-3.929,4.286-9.622,9.354-17,10a59.792,59.792,0,0,0-7-9c-0.333-23.724,10.674-37.214,25-46C265.078,65.112,269.114,65.024,272,63Zm163,1c2.328,0.2,2.826.193,4,1,4.542,1.565,4.455,6.084,8,8h5l1,3c4.195,5.7,1.014,16.7-1,22-5.285,13.906-15.3,26.981-33,28-4.652-3.609-9.609-5.149-12-11-6.752-16.522,9.967-40.245,18-46C428.041,66.821,432.078,66.25,435,64Zm171,0c2.328,0.2,2.826.193,4,1,4.542,1.565,4.455,6.084,8,8h5l1,3c4.2,5.7,1.014,16.7-1,22-5.285,13.906-15.295,26.981-33,28-4.652-3.609-9.609-5.149-12-11-6.752-16.522,9.967-40.245,18-46C599.041,66.821,603.078,66.25,606,64ZM157,71c7.209,0.476,8.632,4.009,13,7v2c-11.906,8.348-12.8,28.693-18,44-1.754-.631-0.971-0.193-2-1-3.851-1.3-4.483-3.579-7-6C142.579,97.585,149.335,82.407,157,71Zm404,2c-12.068,12.817-26.931,23.2-27,48a18.068,18.068,0,0,1,4,3c1.754-.631.971-0.193,2-1,11.481-3.859,18.813-22.776,22-35C563.185,83.456,564.254,75.181,561,73ZM445,75c-14.334,1.94-32.983,28.337-25,46C438.924,116.931,448,97.867,445,75Zm171,0c-14.334,1.94-32.983,28.337-25,46C609.924,116.931,619,97.867,616,75ZM515,95c-17.379-.037-31.21,5.744-46,3-2.14-3.393-3.054-4.685-3-11,16.406,0.088,30.589-1.786,45-2C512.976,88.347,514.552,89.747,515,95Zm117,10c7.562,0.842,10.9,4.834,16,8-0.631,1.754-.193.971-1,2-2.424,10.589-12.281,12.55-19,6C629.65,115.98,630.846,109.886,632,105Zm29,0c7.562,0.842,10.9,4.834,16,8-0.631,1.754-.193.971-1,2-2.424,10.589-12.281,12.55-19,6C658.65,115.98,659.846,109.886,661,105Zm29,0c7.562,0.842,10.9,4.834,16,8-0.631,1.754-.193.971-1,2-2.424,10.589-12.281,12.55-19,6C687.65,115.98,688.846,109.886,690,105Zm-382,2c-1.073.752-.946,0.6-3,1-4.853,6.154-11.624,7.992-13,18,0.8,1.021.355,0.274,1,2h4C300.421,123.843,312.684,115.175,308,107ZM198,262a16.987,16.987,0,0,0,6-1v3c-4.268,2-7.368,4.2-13,5a35.383,35.383,0,0,1-3-3c-6.732-8.447,9.56-33.728,12-42h-2c-3.082,4.14-8.906,6.006-12,10-6.177,7.974-12.719,16.359-18,25-3.07,5.022-2.361,12.43-9,14-7.739-28.008,13.675-69.768,25-87,4.386-6.674,8-19.281,18-20,1.583,1.127,13,5.523,10,7-13.193,20.733-34.648,37.238-39,67h1c6.673-10.824,19.264-27.691,36-28,3.065,2.478,6.885,4.944,10,7C213.057,232.662,198.557,242.3,198,262Zm1037-96c5.82,0.144,8.34,1.837,13,3,2.05,3.241,2.99,4.032,3,10-6.23,8.568-5.7,23.67-18,26a18.3,18.3,0,0,1-1-6C1237.74,191.671,1235.42,176.766,1235,166Zm22,0c5.82,0.144,8.34,1.837,13,3,1.95,3.086,2.89,3.43,3,9-6.07,9.17-5.38,24.619-18,27a18.3,18.3,0,0,1-1-6C1259.74,191.671,1257.42,176.766,1257,166Zm-304,1h4c5.709,11.061,11.74,21.843,15,36,6.862,29.8-15.858,69.378-36,72-2.483-1.81-6.881-3.189-10-4-12.424-19.847,6.146-59.338,27-60,1.819,1.738,4.606,2.871,7,4v-6q-2.5-8-5-16c-2.959-6.8-9.044-11.138-10-20ZM380,278l-5-1c-2.157-3.829-5.769-6.42-7-11-3.88-14.434,11.9-52.373,16-62,3.273-7.691,5.1-21.223,14-23,2.825,2.647,7.784,4.977,11,7v1h-1C393.735,212.276,380.542,241.531,380,278Zm776-94c6.01,0.628,12.96,4.185,14,10-5.13,3.384-10.16,10.392-13,16l-3-1C1152.55,201.493,1152.18,192.769,1156,184Zm-590,9c5.5,0.27,9.1,2.133,13,4v2c-4.534,3.016-9.424,10.228-11,16,4.4-.252,8.323-0.743,10,2h1v1h-2c-3.106,2-9.773.932-13,3-6.541,7-14.384,33.35-12,46h2c3.523,2.024,13.641-3.738,14-3h1v1h-1c-3.5,5.426-8.774,8.128-18,8-3.392-3.123-7.359-4.01-10-8-5.788-7.219,5.988-37.151,9-44-2.9.06-5.468,0.048-7-1-0.877-1.295-.894-2.467-1-5h-1v-1h12v-1C557.055,207.664,562.027,198.988,566,193Zm469,0c5.5,0.27,9.1,2.133,13,4v2c-4.53,3.016-9.42,10.228-11,16,4.4-.252,8.32-0.743,10,2a2.909,2.909,0,0,1,1,1h-2c-3.11,2-9.77.932-13,3-6.54,7-14.38,33.35-12,46h2c3.52,2.024,13.64-3.738,14-3h1v1h-1c-3.5,5.426-8.77,8.128-18,8-3.39-3.123-7.36-4.01-10-8-5.79-7.219,5.99-37.151,9-44-2.9.06-5.47,0.048-7-1-0.88-1.295-.89-2.467-1-5h-1v-1h12v-1C1026.06,207.664,1031.03,198.988,1035,193Zm154,0c5.5,0.27,9.1,2.133,13,4v2c-4.53,3.016-9.42,10.228-11,16,4.4-.252,8.32-0.743,10,2a2.909,2.909,0,0,1,1,1h-2c-3.11,2-9.77.932-13,3-6.54,7-14.38,33.35-12,46h2c3.52,2.024,13.64-3.738,14-3h1v1h-1c-3.5,5.426-8.77,8.128-18,8-3.39-3.123-7.36-4.01-10-8-5.79-7.219,5.99-37.151,9-44-2.9.06-5.47,0.048-7-1-0.88-1.295-.89-2.467-1-5a2.909,2.909,0,0,1-1-1h12v-1C1180.06,207.664,1185.03,198.988,1189,193ZM288,209h3c2.168,3.049,9.065,8.242,7,12-3.063,12.032-13.761,18.969-16,32h1v-2c14.78-10,19.769-33.82,44-34,1.839,2.789,3.185,2.825,4,7-9.333,6.316-15.052,22.423-15,38,3.183,0.944,6.06.154,9,1l-1,2c-4.592,2.208-6.765,3.913-14,4-1.359-1.262-1.768-1.365-4-2-5.88-11.915.249-22.244,3-33h-1c-3.341,4.286-9.154,7.122-13,11l-23,29h-1v-1c-2.006-1.4-2.066-1.346-3-4-2.99-3.757-1.761-12.576,0-18A173.564,173.564,0,0,1,288,209Zm178,0,10,1c1.632,2.585,3,3.47,4,7-16.8-5.324-37.124,29.983-40,45h4c6.453-9.54,17.635-15.762,24-26,3.837-6.173,2.082-13.554,12-14,1.359,1.262,1.768,1.365,4,2v1c-4.816,6.433-5.677,14.965-9,23-8.251,19.955-16.274,48.325-33,60-9.638,6.727-30.836,7.07-35-5h1v-1c4.506,2.475,11.923,6.553,18,2,15.474-4.3,27.717-28.675,30-46h-1c-3.929,4.286-9.622,9.354-17,10a59.792,59.792,0,0,0-7-9c-0.333-23.724,10.674-37.214,25-46C459.078,211.112,463.114,211.024,466,209Zm244,0c4.86,0.9,10.162,2.968,12,7-5.081,3.964-8.362,12.766-10,20h1c3.057-4.834,18.617-22.626,25-23,1.021,0.8.274,0.355,2,1v4c-3.582,5.492.666,13.988-1,18-1.54,3.241-1.737,4.227-6,5-1.8-2.892-5.886-8.473-9-10v1c-14.353,5.016-20.758,23.689-24,40h-2v-1c-5-1.091-7.835-2.709-8-9,2.759-4.136,2.246-9.714,4-15C698.273,234.121,703.479,219.8,710,209Zm166,0h3c2.168,3.049,9.065,8.242,7,12-3.063,12.032-13.761,18.969-16,32h1v-2c14.78-10,19.769-33.82,44-34,1.839,2.789,3.185,2.825,4,7-9.333,6.316-15.052,22.423-15,38,3.183,0.944,6.06.154,9,1q-0.5,1-1,2c-4.592,2.208-6.765,3.913-14,4-1.359-1.262-1.768-1.365-4-2-5.88-11.915.249-22.244,3-33h-1c-3.341,4.286-9.154,7.122-13,11l-23,29h-1v-1c-2.006-1.4-2.066-1.346-3-4-2.99-3.757-1.761-12.576,0-18A173.564,173.564,0,0,1,876,209Zm-724,1a20.14,20.14,0,0,1,7,1l-3,15c-5.107,12.249-14.716,19.4-22,29-5.082,6.695-9.595,15.737-21,16a18.068,18.068,0,0,0-3-4c-0.209-11.143,2.061-18.2,4-27h-1c-7.348,11.3-17.782,21.048-25,33l-3-1a24.956,24.956,0,0,0-4-5c-0.475-14.566,4.618-47.75,14-51,3.437-2.774,7.049-1.494,12-1a6.1,6.1,0,0,0,2,2c-6.151,9.826-11.253,20.178-12,36h1v-1c3.916-3.856,6.641-8.548,10-13l8-7c3.446-5.13,2.341-13.092,8-16,2.413-1.481,4.36-.355,8,0a6.1,6.1,0,0,0,2,2c-5.891,11.024-9.759,27.858-11,43h1c4.5-6.991,11.585-12.795,16-20,5.118-8.353,5.318-20.227,9-30C151.076,210.628,150.924,210.758,152,210Zm79,43c-0.117,3.28-.236,7.184,1,9,1.483,4.434,4.038,4.283,10,4,5.406-5.086,11.87-7.536,16-14a2.834,2.834,0,0,1,1,1l2,1v1h-1c-6.276,10.468-22.979,23.775-36,13-2.164-1.791-3.07-5.918-5-8-0.6-24.969,13.056-49.82,36-50,5.2,4.732,8.241,4.163,8,15-2.09,2.748-2.1,6.927-4,10C254.235,242.705,241.486,251.425,231,253Zm267,0c-0.117,3.28-.236,7.184,1,9,1.483,4.434,4.038,4.283,10,4,5.406-5.086,11.87-7.536,16-14h1v1l2,1v1h-1c-6.276,10.468-22.979,23.775-36,13-2.164-1.791-3.07-5.918-5-8-0.6-24.969,13.056-49.82,36-50,5.2,4.732,8.241,4.163,8,15-2.09,2.748-2.1,6.927-4,10C521.235,242.705,508.486,251.425,498,253Zm273-43c2.328,0.195,2.826.193,4,1,4.542,1.565,4.455,6.084,8,8h5q0.5,1.5,1,3c4.2,5.7,1.014,16.7-1,22-5.285,13.906-15.295,26.981-33,28-4.652-3.609-9.609-5.149-12-11-6.752-16.522,9.967-40.245,18-46C764.041,212.821,768.078,212.25,771,210Zm46,0c5.092,0.3,6.947,1.883,11,3v2c-5.382,4.19-23.654,38.675-20,47v1h2c6-9.745,15.119-18,21-28,5.208-8.859,2.771-20.917,17-21,1.524,1.228,4.177,2.158,6,3-7.582,18.483-18.228,29.579-13,53h-4c-3.493-3.118-8.167-3.021-10-8-1.721-2.333-1.328-7.415-3-10-3.986,7.156-9.714,18.011-21,18-3.152-2.931-6.37-3.324-8-8-2.577-4.019.736-12.36,2-16C802.282,230.784,807.088,220.109,817,210Zm258,0c2.33,0.195,2.83.193,4,1,4.54,1.565,4.45,6.084,8,8h5c0.33,1,.67,2,1,3,4.19,5.7,1.01,16.7-1,22-5.29,13.906-15.29,26.981-33,28-4.65-3.609-9.61-5.149-12-11-6.75-16.522,9.97-40.245,18-46C1068.04,212.821,1072.08,212.25,1075,210Zm-443,2c2.532,0.074,3.716.12,5,1,4.185,1.414,5.229,4.328,8,7v2c-15.854,2.036-29,21.938-29,40h1v1c1.754-.631.971-0.193,2-1,11.757-4.279,24.374-32.114,30-44l9,4c-2.584,10.405-8.142,19.864-11,31-1.4,5.466,2.253,14.833,2,15-2.376,1.909-5.487,2.056-10,2-2.6-4.151-3.156-8.322-3-16,1.05-1.438,1.558-3.922,2-6h-1v1c-7.445,8.138-11.64,22.95-27,20-10.81-17.891,2.056-43.672,15-53C627.374,214.29,629.954,213.907,632,212Zm512,5c7.21,0.476,8.63,4.009,13,7v2c-11.91,8.348-12.8,28.693-18,44-1.75-.631-0.97-0.193-2-1-3.85-1.3-4.48-3.579-7-6C1129.58,243.585,1136.33,228.407,1144,217Zm-185,2c-12.068,12.817-26.931,23.205-27,48a18.068,18.068,0,0,1,4,3c1.754-.631.971-0.193,2-1,11.481-3.859,18.813-22.776,22-35C961.185,229.456,962.254,221.181,959,219Zm-705,2c-12.949,10.291-15.117,9.772-22,27h2C238.845,243.606,259.651,230.933,254,221Zm267,0c-12.949,10.291-15.117,9.772-22,27h2C505.845,243.606,526.651,230.933,521,221Zm260,0c-14.334,1.94-32.983,28.337-25,46C774.924,262.931,784,243.867,781,221Zm304,0c-14.33,1.94-32.98,28.337-25,46C1078.92,262.931,1088,243.867,1085,221Zm116,30c7.56,0.842,10.9,4.834,16,8-0.63,1.754-.19.971-1,2-2.42,10.589-12.28,12.55-19,6C1198.65,261.98,1199.85,255.886,1201,251Z" transform="translate(-9 -20)"/>
</svg>
